<mxfile host="app.diagrams.net" modified="2024-03-21T21:38:39.362Z" agent="Mozilla/5.0 (Windows NT 10.0; Win64; x64) AppleWebKit/537.36 (KHTML, like Gecko) Chrome/121.0.0.0 Safari/537.36 OPR/107.0.0.0" etag="lMEY30M_l-kjzaQsoXKx" version="24.0.7" type="google">
  <diagram name="Page-1" id="5d7acffa-a066-3a61-03fe-96351882024d">
    <mxGraphModel grid="1" page="1" gridSize="10" guides="1" tooltips="1" connect="1" arrows="1" fold="1" pageScale="1" pageWidth="1100" pageHeight="850" background="#ffffff" math="0" shadow="0">
      <root>
        <mxCell id="0" />
        <mxCell id="1" parent="0" />
        <mxCell id="d7_KVr22iXr3Ak7bnlGA-5" value="" style="rounded=1;whiteSpace=wrap;html=1;" vertex="1" parent="1">
          <mxGeometry x="540" y="390" width="120" height="60" as="geometry" />
        </mxCell>
        <mxCell id="d7_KVr22iXr3Ak7bnlGA-10" value="" style="rounded=1;whiteSpace=wrap;html=1;" vertex="1" parent="1">
          <mxGeometry x="820" y="250" width="140" height="40" as="geometry" />
        </mxCell>
        <mxCell id="d7_KVr22iXr3Ak7bnlGA-11" value="" style="endArrow=none;html=1;rounded=0;exitX=0.25;exitY=1;exitDx=0;exitDy=0;entryX=0.25;entryY=0;entryDx=0;entryDy=0;" edge="1" parent="1" source="d7_KVr22iXr3Ak7bnlGA-10" target="d7_KVr22iXr3Ak7bnlGA-10">
          <mxGeometry width="50" height="50" relative="1" as="geometry">
            <mxPoint x="830" y="230" as="sourcePoint" />
            <mxPoint x="880" y="180" as="targetPoint" />
          </mxGeometry>
        </mxCell>
        <mxCell id="d7_KVr22iXr3Ak7bnlGA-12" value="User" style="text;html=1;align=center;verticalAlign=middle;whiteSpace=wrap;rounded=0;" vertex="1" parent="1">
          <mxGeometry x="870" y="255" width="60" height="30" as="geometry" />
        </mxCell>
        <mxCell id="d7_KVr22iXr3Ak7bnlGA-14" value="" style="rounded=1;whiteSpace=wrap;html=1;" vertex="1" parent="1">
          <mxGeometry x="550" y="400" width="120" height="60" as="geometry" />
        </mxCell>
        <mxCell id="d7_KVr22iXr3Ak7bnlGA-15" value="User" style="text;html=1;align=center;verticalAlign=middle;whiteSpace=wrap;rounded=0;" vertex="1" parent="1">
          <mxGeometry x="580" y="415" width="60" height="30" as="geometry" />
        </mxCell>
        <mxCell id="d7_KVr22iXr3Ak7bnlGA-16" value="1" style="text;html=1;align=center;verticalAlign=middle;whiteSpace=wrap;rounded=0;" vertex="1" parent="1">
          <mxGeometry x="820" y="250" width="40" height="40" as="geometry" />
        </mxCell>
        <mxCell id="d7_KVr22iXr3Ak7bnlGA-17" value="" style="endArrow=classic;html=1;rounded=0;exitX=0.5;exitY=0;exitDx=0;exitDy=0;entryX=0.5;entryY=1;entryDx=0;entryDy=0;" edge="1" parent="1" source="d7_KVr22iXr3Ak7bnlGA-5" target="d7_KVr22iXr3Ak7bnlGA-19">
          <mxGeometry width="50" height="50" relative="1" as="geometry">
            <mxPoint x="630" y="550" as="sourcePoint" />
            <mxPoint x="840" y="530" as="targetPoint" />
          </mxGeometry>
        </mxCell>
        <mxCell id="d7_KVr22iXr3Ak7bnlGA-20" value="Logging In/ Registering&amp;nbsp;" style="edgeLabel;html=1;align=center;verticalAlign=middle;resizable=0;points=[];" connectable="0" vertex="1" parent="d7_KVr22iXr3Ak7bnlGA-17">
          <mxGeometry x="-0.0778" y="-1" relative="1" as="geometry">
            <mxPoint as="offset" />
          </mxGeometry>
        </mxCell>
        <mxCell id="d7_KVr22iXr3Ak7bnlGA-19" value="Login/Register User" style="rounded=1;whiteSpace=wrap;html=1;" vertex="1" parent="1">
          <mxGeometry x="540" y="240" width="120" height="60" as="geometry" />
        </mxCell>
        <mxCell id="d7_KVr22iXr3Ak7bnlGA-21" value="" style="endArrow=classic;html=1;rounded=0;entryX=0;entryY=0.5;entryDx=0;entryDy=0;exitX=1;exitY=0.5;exitDx=0;exitDy=0;" edge="1" parent="1" source="d7_KVr22iXr3Ak7bnlGA-19" target="d7_KVr22iXr3Ak7bnlGA-16">
          <mxGeometry width="50" height="50" relative="1" as="geometry">
            <mxPoint x="880" y="620" as="sourcePoint" />
            <mxPoint x="930" y="570" as="targetPoint" />
          </mxGeometry>
        </mxCell>
        <mxCell id="d7_KVr22iXr3Ak7bnlGA-23" value="User Information" style="edgeLabel;html=1;align=center;verticalAlign=middle;resizable=0;points=[];" connectable="0" vertex="1" parent="d7_KVr22iXr3Ak7bnlGA-21">
          <mxGeometry x="-0.0933" y="2" relative="1" as="geometry">
            <mxPoint as="offset" />
          </mxGeometry>
        </mxCell>
        <mxCell id="d7_KVr22iXr3Ak7bnlGA-27" style="edgeStyle=orthogonalEdgeStyle;rounded=0;orthogonalLoop=1;jettySize=auto;html=1;exitX=1;exitY=0.5;exitDx=0;exitDy=0;" edge="1" parent="1" source="d7_KVr22iXr3Ak7bnlGA-24">
          <mxGeometry relative="1" as="geometry">
            <mxPoint x="820" y="620" as="targetPoint" />
          </mxGeometry>
        </mxCell>
        <mxCell id="d7_KVr22iXr3Ak7bnlGA-32" value="Mortgage information" style="edgeLabel;html=1;align=center;verticalAlign=middle;resizable=0;points=[];" connectable="0" vertex="1" parent="d7_KVr22iXr3Ak7bnlGA-27">
          <mxGeometry x="-0.1362" relative="1" as="geometry">
            <mxPoint as="offset" />
          </mxGeometry>
        </mxCell>
        <mxCell id="d7_KVr22iXr3Ak7bnlGA-24" value="Add/update Mortgage" style="rounded=1;whiteSpace=wrap;html=1;" vertex="1" parent="1">
          <mxGeometry x="550" y="590" width="120" height="60" as="geometry" />
        </mxCell>
        <mxCell id="d7_KVr22iXr3Ak7bnlGA-25" value="" style="endArrow=classic;html=1;rounded=0;exitX=0.5;exitY=1;exitDx=0;exitDy=0;entryX=0.5;entryY=0;entryDx=0;entryDy=0;" edge="1" parent="1" source="d7_KVr22iXr3Ak7bnlGA-14" target="d7_KVr22iXr3Ak7bnlGA-24">
          <mxGeometry width="50" height="50" relative="1" as="geometry">
            <mxPoint x="640" y="540" as="sourcePoint" />
            <mxPoint x="690" y="490" as="targetPoint" />
          </mxGeometry>
        </mxCell>
        <mxCell id="d7_KVr22iXr3Ak7bnlGA-26" value="Add/editing&lt;div&gt;Mortgage(s)&lt;/div&gt;" style="edgeLabel;html=1;align=center;verticalAlign=middle;resizable=0;points=[];" connectable="0" vertex="1" parent="d7_KVr22iXr3Ak7bnlGA-25">
          <mxGeometry x="-0.1385" relative="1" as="geometry">
            <mxPoint as="offset" />
          </mxGeometry>
        </mxCell>
        <mxCell id="d7_KVr22iXr3Ak7bnlGA-35" style="edgeStyle=orthogonalEdgeStyle;rounded=0;orthogonalLoop=1;jettySize=auto;html=1;exitX=0.5;exitY=1;exitDx=0;exitDy=0;entryX=1;entryY=0.5;entryDx=0;entryDy=0;" edge="1" parent="1" source="d7_KVr22iXr3Ak7bnlGA-28" target="d7_KVr22iXr3Ak7bnlGA-34">
          <mxGeometry relative="1" as="geometry" />
        </mxCell>
        <mxCell id="d7_KVr22iXr3Ak7bnlGA-46" style="edgeStyle=orthogonalEdgeStyle;rounded=0;orthogonalLoop=1;jettySize=auto;html=1;exitX=0.5;exitY=0;exitDx=0;exitDy=0;entryX=0.5;entryY=1;entryDx=0;entryDy=0;" edge="1" parent="1" source="d7_KVr22iXr3Ak7bnlGA-28" target="d7_KVr22iXr3Ak7bnlGA-45">
          <mxGeometry relative="1" as="geometry" />
        </mxCell>
        <mxCell id="d7_KVr22iXr3Ak7bnlGA-47" value="Mortgage&lt;div&gt;Information&lt;/div&gt;" style="edgeLabel;html=1;align=center;verticalAlign=middle;resizable=0;points=[];" connectable="0" vertex="1" parent="d7_KVr22iXr3Ak7bnlGA-46">
          <mxGeometry x="0.1355" y="1" relative="1" as="geometry">
            <mxPoint as="offset" />
          </mxGeometry>
        </mxCell>
        <mxCell id="d7_KVr22iXr3Ak7bnlGA-71" style="edgeStyle=orthogonalEdgeStyle;rounded=0;orthogonalLoop=1;jettySize=auto;html=1;exitX=1;exitY=0.5;exitDx=0;exitDy=0;entryX=0.25;entryY=0;entryDx=0;entryDy=0;" edge="1" parent="1" source="d7_KVr22iXr3Ak7bnlGA-28" target="d7_KVr22iXr3Ak7bnlGA-70">
          <mxGeometry relative="1" as="geometry" />
        </mxCell>
        <mxCell id="d7_KVr22iXr3Ak7bnlGA-73" value="Mortgage&lt;div&gt;Information&lt;/div&gt;" style="edgeLabel;html=1;align=center;verticalAlign=middle;resizable=0;points=[];" connectable="0" vertex="1" parent="d7_KVr22iXr3Ak7bnlGA-71">
          <mxGeometry x="0.0533" y="-1" relative="1" as="geometry">
            <mxPoint as="offset" />
          </mxGeometry>
        </mxCell>
        <mxCell id="d7_KVr22iXr3Ak7bnlGA-28" value="" style="rounded=1;whiteSpace=wrap;html=1;" vertex="1" parent="1">
          <mxGeometry x="820" y="600" width="140" height="40" as="geometry" />
        </mxCell>
        <mxCell id="d7_KVr22iXr3Ak7bnlGA-29" value="" style="endArrow=none;html=1;rounded=0;exitX=0.25;exitY=1;exitDx=0;exitDy=0;entryX=0.25;entryY=0;entryDx=0;entryDy=0;" edge="1" parent="1" source="d7_KVr22iXr3Ak7bnlGA-28" target="d7_KVr22iXr3Ak7bnlGA-28">
          <mxGeometry width="50" height="50" relative="1" as="geometry">
            <mxPoint x="830" y="580" as="sourcePoint" />
            <mxPoint x="880" y="530" as="targetPoint" />
          </mxGeometry>
        </mxCell>
        <mxCell id="d7_KVr22iXr3Ak7bnlGA-30" value="Mortgage" style="text;html=1;align=center;verticalAlign=middle;whiteSpace=wrap;rounded=0;" vertex="1" parent="1">
          <mxGeometry x="870" y="605" width="60" height="30" as="geometry" />
        </mxCell>
        <mxCell id="d7_KVr22iXr3Ak7bnlGA-31" value="2" style="text;html=1;align=center;verticalAlign=middle;whiteSpace=wrap;rounded=0;" vertex="1" parent="1">
          <mxGeometry x="820" y="600" width="40" height="40" as="geometry" />
        </mxCell>
        <mxCell id="d7_KVr22iXr3Ak7bnlGA-37" style="edgeStyle=orthogonalEdgeStyle;rounded=0;orthogonalLoop=1;jettySize=auto;html=1;exitX=0;exitY=0.5;exitDx=0;exitDy=0;entryX=0;entryY=0.5;entryDx=0;entryDy=0;" edge="1" parent="1" source="d7_KVr22iXr3Ak7bnlGA-34" target="d7_KVr22iXr3Ak7bnlGA-5">
          <mxGeometry relative="1" as="geometry">
            <Array as="points">
              <mxPoint x="490" y="730" />
              <mxPoint x="490" y="420" />
            </Array>
          </mxGeometry>
        </mxCell>
        <mxCell id="d7_KVr22iXr3Ak7bnlGA-38" value="Return&lt;div&gt;Analysis&lt;/div&gt;" style="edgeLabel;html=1;align=center;verticalAlign=middle;resizable=0;points=[];" connectable="0" vertex="1" parent="d7_KVr22iXr3Ak7bnlGA-37">
          <mxGeometry x="0.0381" relative="1" as="geometry">
            <mxPoint as="offset" />
          </mxGeometry>
        </mxCell>
        <mxCell id="d7_KVr22iXr3Ak7bnlGA-39" style="edgeStyle=orthogonalEdgeStyle;rounded=0;orthogonalLoop=1;jettySize=auto;html=1;exitX=0.5;exitY=1;exitDx=0;exitDy=0;entryX=0.5;entryY=0;entryDx=0;entryDy=0;" edge="1" parent="1" source="d7_KVr22iXr3Ak7bnlGA-34" target="d7_KVr22iXr3Ak7bnlGA-40">
          <mxGeometry relative="1" as="geometry">
            <mxPoint x="610" y="830" as="targetPoint" />
          </mxGeometry>
        </mxCell>
        <mxCell id="d7_KVr22iXr3Ak7bnlGA-44" value="Analysis&lt;div&gt;Information&lt;/div&gt;" style="edgeLabel;html=1;align=center;verticalAlign=middle;resizable=0;points=[];" connectable="0" vertex="1" parent="d7_KVr22iXr3Ak7bnlGA-39">
          <mxGeometry x="-0.3714" y="-2" relative="1" as="geometry">
            <mxPoint x="2" y="8" as="offset" />
          </mxGeometry>
        </mxCell>
        <mxCell id="d7_KVr22iXr3Ak7bnlGA-34" value="Generate Analysis" style="rounded=1;whiteSpace=wrap;html=1;" vertex="1" parent="1">
          <mxGeometry x="550" y="700" width="120" height="60" as="geometry" />
        </mxCell>
        <mxCell id="d7_KVr22iXr3Ak7bnlGA-36" value="Mortgage information" style="edgeLabel;html=1;align=center;verticalAlign=middle;resizable=0;points=[];" connectable="0" vertex="1" parent="1">
          <mxGeometry x="830" y="730" as="geometry" />
        </mxCell>
        <mxCell id="d7_KVr22iXr3Ak7bnlGA-40" value="" style="rounded=1;whiteSpace=wrap;html=1;" vertex="1" parent="1">
          <mxGeometry x="540" y="830" width="140" height="40" as="geometry" />
        </mxCell>
        <mxCell id="d7_KVr22iXr3Ak7bnlGA-41" value="" style="endArrow=none;html=1;rounded=0;exitX=0.25;exitY=1;exitDx=0;exitDy=0;entryX=0.25;entryY=0;entryDx=0;entryDy=0;" edge="1" parent="1" source="d7_KVr22iXr3Ak7bnlGA-40" target="d7_KVr22iXr3Ak7bnlGA-40">
          <mxGeometry width="50" height="50" relative="1" as="geometry">
            <mxPoint x="550" y="810" as="sourcePoint" />
            <mxPoint x="600" y="760" as="targetPoint" />
          </mxGeometry>
        </mxCell>
        <mxCell id="d7_KVr22iXr3Ak7bnlGA-42" value="Analysis" style="text;html=1;align=center;verticalAlign=middle;whiteSpace=wrap;rounded=0;" vertex="1" parent="1">
          <mxGeometry x="590" y="835" width="60" height="30" as="geometry" />
        </mxCell>
        <mxCell id="d7_KVr22iXr3Ak7bnlGA-43" value="3" style="text;html=1;align=center;verticalAlign=middle;whiteSpace=wrap;rounded=0;" vertex="1" parent="1">
          <mxGeometry x="540" y="830" width="40" height="40" as="geometry" />
        </mxCell>
        <mxCell id="d7_KVr22iXr3Ak7bnlGA-50" style="edgeStyle=orthogonalEdgeStyle;rounded=0;orthogonalLoop=1;jettySize=auto;html=1;exitX=0;exitY=0.5;exitDx=0;exitDy=0;entryX=1;entryY=0.5;entryDx=0;entryDy=0;" edge="1" parent="1" source="d7_KVr22iXr3Ak7bnlGA-45" target="d7_KVr22iXr3Ak7bnlGA-14">
          <mxGeometry relative="1" as="geometry" />
        </mxCell>
        <mxCell id="d7_KVr22iXr3Ak7bnlGA-51" value="Return Amorization&lt;div&gt;Table&lt;/div&gt;" style="edgeLabel;html=1;align=center;verticalAlign=middle;resizable=0;points=[];" connectable="0" vertex="1" parent="d7_KVr22iXr3Ak7bnlGA-50">
          <mxGeometry x="-0.05" y="-1" relative="1" as="geometry">
            <mxPoint as="offset" />
          </mxGeometry>
        </mxCell>
        <mxCell id="d7_KVr22iXr3Ak7bnlGA-56" style="edgeStyle=orthogonalEdgeStyle;rounded=0;orthogonalLoop=1;jettySize=auto;html=1;exitX=1;exitY=0.5;exitDx=0;exitDy=0;entryX=0;entryY=0.5;entryDx=0;entryDy=0;" edge="1" parent="1" source="d7_KVr22iXr3Ak7bnlGA-45" target="d7_KVr22iXr3Ak7bnlGA-55">
          <mxGeometry relative="1" as="geometry" />
        </mxCell>
        <mxCell id="d7_KVr22iXr3Ak7bnlGA-57" value="Amortization&lt;div&gt;Information&lt;/div&gt;" style="edgeLabel;html=1;align=center;verticalAlign=middle;resizable=0;points=[];" connectable="0" vertex="1" parent="d7_KVr22iXr3Ak7bnlGA-56">
          <mxGeometry x="-0.1273" y="2" relative="1" as="geometry">
            <mxPoint as="offset" />
          </mxGeometry>
        </mxCell>
        <mxCell id="d7_KVr22iXr3Ak7bnlGA-45" value="Generate Amortization&lt;div&gt;Table&lt;/div&gt;" style="rounded=1;whiteSpace=wrap;html=1;" vertex="1" parent="1">
          <mxGeometry x="830" y="400" width="120" height="60" as="geometry" />
        </mxCell>
        <mxCell id="d7_KVr22iXr3Ak7bnlGA-52" value="" style="rounded=1;whiteSpace=wrap;html=1;" vertex="1" parent="1">
          <mxGeometry x="1100" y="410" width="140" height="40" as="geometry" />
        </mxCell>
        <mxCell id="d7_KVr22iXr3Ak7bnlGA-53" value="" style="endArrow=none;html=1;rounded=0;exitX=0.25;exitY=1;exitDx=0;exitDy=0;entryX=0.25;entryY=0;entryDx=0;entryDy=0;" edge="1" parent="1" source="d7_KVr22iXr3Ak7bnlGA-52" target="d7_KVr22iXr3Ak7bnlGA-52">
          <mxGeometry width="50" height="50" relative="1" as="geometry">
            <mxPoint x="1110" y="390" as="sourcePoint" />
            <mxPoint x="1160" y="340" as="targetPoint" />
          </mxGeometry>
        </mxCell>
        <mxCell id="d7_KVr22iXr3Ak7bnlGA-54" value="Amortization" style="text;html=1;align=center;verticalAlign=middle;whiteSpace=wrap;rounded=0;" vertex="1" parent="1">
          <mxGeometry x="1150" y="415" width="60" height="30" as="geometry" />
        </mxCell>
        <mxCell id="d7_KVr22iXr3Ak7bnlGA-55" value="4" style="text;html=1;align=center;verticalAlign=middle;whiteSpace=wrap;rounded=0;" vertex="1" parent="1">
          <mxGeometry x="1100" y="410" width="40" height="40" as="geometry" />
        </mxCell>
        <mxCell id="d7_KVr22iXr3Ak7bnlGA-62" style="edgeStyle=orthogonalEdgeStyle;rounded=0;orthogonalLoop=1;jettySize=auto;html=1;exitX=0.5;exitY=0;exitDx=0;exitDy=0;entryX=0.5;entryY=1;entryDx=0;entryDy=0;" edge="1" parent="1" source="d7_KVr22iXr3Ak7bnlGA-58" target="d7_KVr22iXr3Ak7bnlGA-61">
          <mxGeometry relative="1" as="geometry" />
        </mxCell>
        <mxCell id="d7_KVr22iXr3Ak7bnlGA-63" value="Include&lt;div&gt;override&lt;/div&gt;" style="edgeLabel;html=1;align=center;verticalAlign=middle;resizable=0;points=[];" connectable="0" vertex="1" parent="d7_KVr22iXr3Ak7bnlGA-62">
          <mxGeometry x="0.0133" y="1" relative="1" as="geometry">
            <mxPoint as="offset" />
          </mxGeometry>
        </mxCell>
        <mxCell id="d7_KVr22iXr3Ak7bnlGA-58" value="" style="rounded=1;whiteSpace=wrap;html=1;" vertex="1" parent="1">
          <mxGeometry x="1100" y="835" width="120" height="60" as="geometry" />
        </mxCell>
        <mxCell id="d7_KVr22iXr3Ak7bnlGA-59" value="" style="rounded=1;whiteSpace=wrap;html=1;" vertex="1" parent="1">
          <mxGeometry x="1110" y="845" width="120" height="60" as="geometry" />
        </mxCell>
        <mxCell id="d7_KVr22iXr3Ak7bnlGA-60" value="User" style="text;html=1;align=center;verticalAlign=middle;whiteSpace=wrap;rounded=0;" vertex="1" parent="1">
          <mxGeometry x="1140" y="860" width="60" height="30" as="geometry" />
        </mxCell>
        <mxCell id="d7_KVr22iXr3Ak7bnlGA-68" style="edgeStyle=orthogonalEdgeStyle;rounded=0;orthogonalLoop=1;jettySize=auto;html=1;exitX=0.5;exitY=0;exitDx=0;exitDy=0;entryX=0.5;entryY=1;entryDx=0;entryDy=0;" edge="1" parent="1" source="d7_KVr22iXr3Ak7bnlGA-61" target="d7_KVr22iXr3Ak7bnlGA-64">
          <mxGeometry relative="1" as="geometry" />
        </mxCell>
        <mxCell id="d7_KVr22iXr3Ak7bnlGA-69" value="Override&lt;div&gt;Information&lt;/div&gt;" style="edgeLabel;html=1;align=center;verticalAlign=middle;resizable=0;points=[];" connectable="0" vertex="1" parent="d7_KVr22iXr3Ak7bnlGA-68">
          <mxGeometry x="-0.1143" relative="1" as="geometry">
            <mxPoint as="offset" />
          </mxGeometry>
        </mxCell>
        <mxCell id="d7_KVr22iXr3Ak7bnlGA-61" value="Apply override" style="rounded=1;whiteSpace=wrap;html=1;" vertex="1" parent="1">
          <mxGeometry x="1100" y="710" width="120" height="60" as="geometry" />
        </mxCell>
        <mxCell id="d7_KVr22iXr3Ak7bnlGA-64" value="" style="rounded=1;whiteSpace=wrap;html=1;" vertex="1" parent="1">
          <mxGeometry x="1090" y="600" width="140" height="40" as="geometry" />
        </mxCell>
        <mxCell id="d7_KVr22iXr3Ak7bnlGA-65" value="" style="endArrow=none;html=1;rounded=0;exitX=0.25;exitY=1;exitDx=0;exitDy=0;entryX=0.25;entryY=0;entryDx=0;entryDy=0;" edge="1" parent="1" source="d7_KVr22iXr3Ak7bnlGA-64" target="d7_KVr22iXr3Ak7bnlGA-64">
          <mxGeometry width="50" height="50" relative="1" as="geometry">
            <mxPoint x="1100" y="580" as="sourcePoint" />
            <mxPoint x="1150" y="530" as="targetPoint" />
          </mxGeometry>
        </mxCell>
        <mxCell id="d7_KVr22iXr3Ak7bnlGA-66" value="Override" style="text;html=1;align=center;verticalAlign=middle;whiteSpace=wrap;rounded=0;" vertex="1" parent="1">
          <mxGeometry x="1140" y="605" width="60" height="30" as="geometry" />
        </mxCell>
        <mxCell id="d7_KVr22iXr3Ak7bnlGA-72" style="edgeStyle=orthogonalEdgeStyle;rounded=0;orthogonalLoop=1;jettySize=auto;html=1;exitX=0;exitY=0.5;exitDx=0;exitDy=0;entryX=0.75;entryY=0;entryDx=0;entryDy=0;" edge="1" parent="1" source="d7_KVr22iXr3Ak7bnlGA-67" target="d7_KVr22iXr3Ak7bnlGA-70">
          <mxGeometry relative="1" as="geometry" />
        </mxCell>
        <mxCell id="d7_KVr22iXr3Ak7bnlGA-74" value="Override&lt;div&gt;Information&lt;/div&gt;" style="edgeLabel;html=1;align=center;verticalAlign=middle;resizable=0;points=[];" connectable="0" vertex="1" parent="d7_KVr22iXr3Ak7bnlGA-72">
          <mxGeometry x="0.2" y="-2" relative="1" as="geometry">
            <mxPoint x="2" y="2" as="offset" />
          </mxGeometry>
        </mxCell>
        <mxCell id="d7_KVr22iXr3Ak7bnlGA-67" value="5" style="text;html=1;align=center;verticalAlign=middle;whiteSpace=wrap;rounded=0;" vertex="1" parent="1">
          <mxGeometry x="1090" y="600" width="40" height="40" as="geometry" />
        </mxCell>
        <mxCell id="d7_KVr22iXr3Ak7bnlGA-75" style="edgeStyle=orthogonalEdgeStyle;rounded=0;orthogonalLoop=1;jettySize=auto;html=1;exitX=0.5;exitY=1;exitDx=0;exitDy=0;entryX=0;entryY=0.5;entryDx=0;entryDy=0;" edge="1" parent="1" source="d7_KVr22iXr3Ak7bnlGA-70" target="d7_KVr22iXr3Ak7bnlGA-58">
          <mxGeometry relative="1" as="geometry" />
        </mxCell>
        <mxCell id="d7_KVr22iXr3Ak7bnlGA-76" value="Return Analysis" style="edgeLabel;html=1;align=center;verticalAlign=middle;resizable=0;points=[];" connectable="0" vertex="1" parent="d7_KVr22iXr3Ak7bnlGA-75">
          <mxGeometry x="0.1034" y="2" relative="1" as="geometry">
            <mxPoint x="15" y="2" as="offset" />
          </mxGeometry>
        </mxCell>
        <mxCell id="d7_KVr22iXr3Ak7bnlGA-82" style="edgeStyle=orthogonalEdgeStyle;rounded=0;orthogonalLoop=1;jettySize=auto;html=1;exitX=0;exitY=0.5;exitDx=0;exitDy=0;entryX=1;entryY=0.5;entryDx=0;entryDy=0;" edge="1" parent="1" source="d7_KVr22iXr3Ak7bnlGA-70" target="d7_KVr22iXr3Ak7bnlGA-78">
          <mxGeometry relative="1" as="geometry" />
        </mxCell>
        <mxCell id="d7_KVr22iXr3Ak7bnlGA-83" value="Override&lt;div&gt;Analysis&lt;/div&gt;&lt;div&gt;Information&lt;/div&gt;" style="edgeLabel;html=1;align=center;verticalAlign=middle;resizable=0;points=[];" connectable="0" vertex="1" parent="d7_KVr22iXr3Ak7bnlGA-82">
          <mxGeometry x="-0.05" y="1" relative="1" as="geometry">
            <mxPoint as="offset" />
          </mxGeometry>
        </mxCell>
        <mxCell id="d7_KVr22iXr3Ak7bnlGA-70" value="Generate Override&lt;div&gt;Analysis&lt;/div&gt;" style="rounded=1;whiteSpace=wrap;html=1;" vertex="1" parent="1">
          <mxGeometry x="950" y="750" width="120" height="60" as="geometry" />
        </mxCell>
        <mxCell id="d7_KVr22iXr3Ak7bnlGA-78" value="" style="rounded=1;whiteSpace=wrap;html=1;" vertex="1" parent="1">
          <mxGeometry x="730" y="760" width="140" height="40" as="geometry" />
        </mxCell>
        <mxCell id="d7_KVr22iXr3Ak7bnlGA-79" value="" style="endArrow=none;html=1;rounded=0;exitX=0.25;exitY=1;exitDx=0;exitDy=0;entryX=0.25;entryY=0;entryDx=0;entryDy=0;" edge="1" parent="1" source="d7_KVr22iXr3Ak7bnlGA-78" target="d7_KVr22iXr3Ak7bnlGA-78">
          <mxGeometry width="50" height="50" relative="1" as="geometry">
            <mxPoint x="740" y="740" as="sourcePoint" />
            <mxPoint x="790" y="690" as="targetPoint" />
          </mxGeometry>
        </mxCell>
        <mxCell id="d7_KVr22iXr3Ak7bnlGA-80" value="Override Analysis" style="text;html=1;align=center;verticalAlign=middle;whiteSpace=wrap;rounded=0;" vertex="1" parent="1">
          <mxGeometry x="780" y="765" width="60" height="30" as="geometry" />
        </mxCell>
        <mxCell id="d7_KVr22iXr3Ak7bnlGA-81" value="6" style="text;html=1;align=center;verticalAlign=middle;whiteSpace=wrap;rounded=0;" vertex="1" parent="1">
          <mxGeometry x="730" y="760" width="40" height="40" as="geometry" />
        </mxCell>
        <mxCell id="d7_KVr22iXr3Ak7bnlGA-84" value="Data Flow Diagram" style="shape=umlFrame;whiteSpace=wrap;html=1;pointerEvents=0;width=120;height=30;" vertex="1" parent="1">
          <mxGeometry x="410" y="200" width="870" height="740" as="geometry" />
        </mxCell>
      </root>
    </mxGraphModel>
  </diagram>
</mxfile>
